<svg xmlns="http://www.w3.org/2000/svg" version="1.1" viewBox="-5.0 -10.0 110.0 135.0">
  <path d="m55.891 22.141v1.2617l-11.777 0.003906v-1.2656zm-14.141-4.7227v0.019531l-0.003906 0.003906c-0.003906-0.019531-0.007813-0.019531-0.011719-0.019531-0.62109 0-1.2148 0.24609-1.6523 0.6875-0.44531 0.44141-0.69141 1.043-0.69141 1.668v0.52344h-1.6914c-5.2578 0-9.5234 4.2461-9.5547 9.4922v7.7578l4.7227 0.003907v-7.6992c0-2.6602 2.1523-4.8203 4.8086-4.832h1.7148v0.74219c0 0.625 0.24609 1.2266 0.69141 1.668 0.44141 0.44531 1.043 0.69141 1.668 0.69141v0.003906l16.5-0.003906c1.3047 0 2.3633-1.0586 2.3633-2.3594v-0.74219h1.7109c1.9688 0.007812 3.6562 1.1914 4.4023 2.8867h0.003907c1.7656 0.10938 3.4688 0.44922 5.082 0.99219-0.48047-4.8281-4.5547-8.6016-9.5078-8.6016h-1.6914v-0.51953c0-1.3047-1.0586-2.3633-2.3633-2.3633zm37.305 21.855v0.023437c-0.003907-0.019531-0.003907-0.019531-0.007813-0.019531-1.3008 0-2.3516 1.0547-2.3516 2.3594 0 1.3008 1.0586 2.3594 2.3594 2.3594 1.3047 0 2.3633-1.0586 2.3633-2.3594 0-1.3047-1.0586-2.3633-2.3633-2.3633zm-5.8516 1.7656v0.003907c-0.60547-0.003907-1.2148 0.23047-1.6758 0.69531l-7.1602 7.207v0.003907l-2.4375-3.4844c-0.46094-0.65625-1.1914-1.0078-1.9375-1.0078-0.46875 0-0.94141 0.13672-1.3516 0.42578-1.0664 0.75-1.3281 2.2188-0.57812 3.2891l4.0586 5.7969c0.39844 0.57422 1.0352 0.9375 1.7305 0.99609 0.066407 0.007812 0.13281 0.011718 0.20313 0.011718 0.625 0 1.2305-0.25 1.6719-0.69922l9.1523-9.2109c0.91797-0.92578 0.91406-2.4219-0.011718-3.3398-0.46094-0.45703-1.0625-0.6875-1.6641-0.6875v0.003907zm-7.7422-10.508v0.023438h-0.003907c0-0.019532-0.003906-0.019532-0.003906-0.019532-9.5508 0-17.293 7.7461-17.293 17.297 0 9.5547 7.7461 17.301 17.301 17.301 9.0312 0 16.449-6.9219 17.23-15.754 0.003906-0.050781 0.003906-0.10156 0.003906-0.15234 0-1.3047-1.0586-2.3633-2.3633-2.3633-1.2812 0-2.332 1.0273-2.3633 2.3008v0.003907c-0.66797 6.3164-6.0117 11.242-12.508 11.242-6.9492 0-12.578-5.6328-12.578-12.578 0-6.9453 5.6289-12.578 12.578-12.578 2.9258 0 5.6211 1 7.7539 2.6758l0.003906 0.003906c0.40625 0.33203 0.92969 0.53516 1.5 0.53516 1.3047 0 2.3633-1.0547 2.3633-2.3594 0-0.75-0.35156-1.418-0.89453-1.8516h-0.003906c-2.9453-2.3359-6.6758-3.7266-10.723-3.7266v0.003906zm-27.078 27.359v0.019531h-0.003906c-0.003906-0.015625-0.003906-0.015625-0.007812-0.015625-1.2969 0-2.3516 1.0547-2.3516 2.3555v10.988c0 1.3047 1.0586 2.3633 2.3633 2.3633 1.3008 0 2.3594-1.0586 2.3594-2.3633v-10.988c0-1.3047-1.0586-2.3594-2.3594-2.3594zm10.141 0.52344-0.007813 0.007813c-0.53516 0.42578-0.875 1.0859-0.875 1.8281v10.988c0 1.3047 1.0547 2.3633 2.3594 2.3633s2.3633-1.0586 2.3633-2.3633v-8.3359c-1.4883-1.2969-2.7812-2.8047-3.832-4.4805zm10.738 12.824v0.007813c0 1.2969 1.0547 2.3555 2.3594 2.3555 1.3047 0 2.3633-1.0586 2.3633-2.3633v-3.4961c-1.6367-0.12109-3.2148-0.4375-4.7148-0.92578zm-39.598-31.77v0.019531l-0.007812 0.003907c-0.003906-0.019532-0.007812-0.019532-0.011719-0.019532-0.61719 0-1.2109 0.24609-1.6523 0.6875-0.44141 0.44141-0.69141 1.043-0.69141 1.668v9.1367c0 0.625 0.25 1.2266 0.69141 1.668 0.44531 0.44531 1.043 0.69141 1.6719 0.69141h2.1523v0.003906l2.9922 21.008c0.63672 4.6484 4.625 8.2305 9.4531 8.2383l31.48-0.015625c4.7734-0.015625 8.7227-3.5273 9.4219-8.1094l1.4141-10.02c-1.5625 1.0352-3.2812 1.8672-5.1094 2.4453l-0.96875 6.8203v0.003907c-0.33594 2.3359-2.3477 4.1328-4.7812 4.1328l-31.477 0.019531c-2.3711-0.015624-4.3398-1.7383-4.7305-4.0039l-2.9219-20.52h19.672c-0.42969-1.5156-0.6875-3.0938-0.75-4.7266h-23.488v-4.4102h23.805c0.30469-1.6523 0.8125-3.2344 1.4961-4.7148z" fill="#E66195"/>
</svg>
