<svg xmlns="http://www.w3.org/2000/svg" xmlns:xlink="http://www.w3.org/1999/xlink" version="1.1" x="0px" y="0px" viewBox="0 0 90 112.5" enable-background="new 0 0 90 90" xml:space="preserve">
  <path fill-rule="evenodd" clip-rule="evenodd" fill="#E66195" d="M24.045,22.884h41.943v58.349H24.045V22.884z M59.557,6.337l-36.73,10.812  c-1.285,0.382-1.406,0.303-1.406,1.568v2.656c-0.01,0.063-0.016,0.125-0.016,0.188v61c0,0.729,0.594,1.318,1.324,1.318H67.32  c0.725,0,1.318-0.594,1.318-1.318v-61c0-0.729-0.588-1.317-1.318-1.323H53.682c0.063-1.458,1.297-2.677,3.301-2.677h5.615V8.359  C62.598,6.321,61.164,5.864,59.557,6.337z"/>
  <path fill-rule="evenodd" clip-rule="evenodd" fill="#E66195" d="M42.67,46.447c1.34,0.089,1.553,2.292,0.387,2.65  c-1.934,0.595-3.594,1.948-4.605,3.854c-0.797,1.714-3.166,0.266-2.203-1.349c1.34-2.531,3.465-4.755,6.141-5.141  C42.488,46.447,42.582,46.441,42.67,46.447z M45.02,40.624c-0.807,0-1.453,0.604-1.453,1.355v0.979  c-6.463,0.781-11.494,6.678-11.594,13.922h26.094c-0.1-7.244-5.131-13.141-11.594-13.917v-0.984  C46.473,41.228,45.826,40.624,45.02,40.624z"/>
  <path fill-rule="evenodd" clip-rule="evenodd" fill="#E66195" d="M30.951,59.17h28.137c0.891,0,1.447,0.699,1.447,1.396v1.531  c0,0.698-0.557,1.396-1.447,1.396H30.951c-0.891,0-1.447-0.698-1.447-1.396v-1.531C29.504,59.869,30.061,59.17,30.951,59.17z"/>
</svg>
