<svg xmlns="http://www.w3.org/2000/svg" version="1.1" viewBox="-5.0 -10.0 110.0 135.0">
 <path fill="#E66195" d="m37.363 6.6367c-0.77344 0.29297-1.6406-0.09375-1.9336-0.86719-0.29297-0.77344 0.09375-1.6406 0.86719-1.9336 0.70312-0.26563 1.4531-0.48047 2.2344-0.62109 0.76953-0.14062 1.543-0.21484 2.3086-0.21484 3.7148 0 7.0781 1.6016 9.5078 4.1875 2.4062 2.5625 3.8984 6.0938 3.8984 9.9844 0 0.82812-0.67188 1.5-1.5 1.5h-0.64844c0.023438 0.55469 0.011719 1.1016-0.027344 1.6367-0.19531 2.6211-1.1211 5.1602-2.6367 7.1328l-0.070313 0.082032c-0.67188 0.85937-1.457 1.6094-2.3477 2.207 1.4102 1.8711 2.9336 3.1211 4.6562 4.0117 2.0664 1.0703 4.4961 1.6836 7.4023 2.2617 1.6133 0.32031 2.8984 0.79688 3.8828 1.3594 0.12109-0.11328 0.26562-0.20703 0.42969-0.27344l11.191-4.6953c0.76172-0.32031 1.6445 0.039063 1.9648 0.80469 0.050781 0.125 0.085937 0.25 0.10156 0.375l1.793 10.047c0.14062 0.81641-0.40234 1.5938-1.2188 1.7344-0.13281 0.023437-0.26172 0.027343-0.38672 0.015625l-0.62891-0.003906 0.79688 2.8672c0.21875 0.79297-0.24609 1.6211-1.043 1.8398-0.79297 0.21875-1.6211-0.24609-1.8398-1.043l-1.0273-3.6914-5.3594-0.042969 6.9492 26.281c0.085937 0.32422 0.058593 0.65625-0.0625 0.94531l-2.2227 5.7266-0.070312 0.15625c-0.22266 0.73438-0.66406 1.3125-1.2578 1.7734-1.0156 0.78125-2.4102 1.0625-3.8594 1.1758-0.99219 0.078125-2.5039 0.16797-4.0625 0.21484-1.0547 0.03125-2.1016 0.046876-2.9688 0.019532-0.066406 0.007812-0.13672 0.015625-0.20703 0.015625l-31.867 0.085937c-0.82422 0-1.4922-0.66797-1.4922-1.4922s0.66797-1.4922 1.4922-1.4922l26.289-0.070312c-0.12109-0.28125-0.22656-0.58984-0.3125-0.92969-0.46094-1.7656-0.52734-4.3242-0.58594-6.7188-0.035157-1.3672-0.066407-2.6797-0.17578-3.707-0.14453-1.3672-0.69531-2.1289-1.5469-2.5234l-0.074219-0.035156c-1.0859-0.48047-2.6914-0.57812-4.5938-0.57031-5.3828 0.03125-10.762 0.085937-16.145 0.10547-0.15234 0.050782-0.31641 0.082032-0.48828 0.082032l-1.3203 0.089844c-0.60547 0.046874-1.4883 0.11719-2.4766 0.23437-0.96875 0.11328-2.0273 0.27734-2.9961 0.5-1.7578 0.41016-3.3242 1.0234-4.6836 1.8047-2.6367 1.5078-4.5195 3.6523-5.5625 6.1523-0.71875 1.7227-1.0469 3.6289-0.95703 5.6289l9.3086-0.023438c0.82422 0 1.4922 0.66797 1.4922 1.4922s-0.66797 1.4922-1.4922 1.4922l-8.875 0.023437c0.33984 1.3828 0.87109 2.793 1.6055 4.2031h48.133c0.82812 0 1.5 0.67188 1.5 1.5s-0.67188 1.5-1.5 1.5h-22c-0.53906 2.1641-1.7266 4.0664-3.3398 5.4805-1.8398 1.6094-4.2305 2.582-6.8359 2.582s-4.9961-0.97266-6.8359-2.582c-1.6133-1.4141-2.8047-3.3164-3.3398-5.4805h-6.668c-0.58594 0-1.0898-0.33594-1.3398-0.82422-1.1094-1.9531-1.8828-3.9258-2.3398-5.8711-0.85156-3.6445-0.57812-7.1836 0.71094-10.277 1.2969-3.1094 3.6172-5.7578 6.8398-7.6055 0.72266-0.41406 1.4883-0.78516 2.3008-1.1133h-14.391c-0.82812 0-1.5-0.67188-1.5-1.5v-18.352c0-0.82812 0.67188-1.5 1.5-1.5h21.961c0.32422 0 0.62891 0.10156 0.875 0.28125l0.0625-0.30469c0.93359-4.4609 2.6172-8.7188 5.6445-12.547-0.95703-0.60938-1.8359-1.3398-2.6172-2.1719-2.4062-2.5625-3.8984-6.0938-3.8984-9.9844 0-1.6992 0.28516-3.332 0.80469-4.8438 0.53906-1.5664 1.3359-3.0117 2.3398-4.2695 0.51562-0.64453 1.457-0.75391 2.1055-0.23828 0.64453 0.51562 0.75391 1.457 0.23828 2.1055-0.78516 0.98828-1.4141 2.1289-1.8438 3.3789-0.41406 1.2031-0.64062 2.5117-0.64062 3.8711 0 3.1055 1.1758 5.9141 3.0781 7.9336 1.543 1.6406 3.5703 2.7695 5.8281 3.1211v-11.055c0-0.82812 0.67188-1.5 1.5-1.5h10.309c-0.3125-2.5039-1.3945-4.7422-2.9844-6.4336-1.875-2-4.4688-3.2344-7.3281-3.2344-0.62109 0-1.2148 0.054688-1.7734 0.15625-0.57031 0.10547-1.1445 0.26953-1.707 0.48047zm-15.602 38.262v4.8516c0 0.82812-0.67188 1.5-1.5 1.5h-7.8008c-0.82813 0-1.5-0.67188-1.5-1.5v-4.8516h-4.0547v15.352h18.961v-15.352h-4.1094zm-7.8008 0v3.3516h4.8008v-3.3516zm23.559 44.039h-14.105c0.44531 1.2656 1.207 2.375 2.1836 3.2305 1.3047 1.1406 3.0078 1.832 4.8672 1.832s3.5625-0.69141 4.8672-1.832c0.97656-0.85547 1.7383-1.9648 2.1836-3.2305zm46.059-17.051c0.45703-0.058594 0.91016-0.085938 1.3477-0.085938 3.082 0 5.8789 1.2773 7.8984 3.3398 2.0156 2.0547 3.2617 4.8945 3.2617 8.0234 0 3.1289-1.25 5.9648-3.2617 8.0234-2.0195 2.0625-4.8164 3.3398-7.8984 3.3398-2.2031 0-4.2656-0.65625-6-1.7852-1.4766-0.96094-2.7188-2.2656-3.6133-3.8047l-6.3516 0.003906c-0.82813 0-1.5-0.67188-1.5-1.5s0.67187-1.5 1.5-1.5h5.543l6.1602-13.371-3.0898-11.105c-0.21875-0.79297 0.24609-1.6211 1.043-1.8398 0.79297-0.21875 1.6211 0.24609 1.8398 1.043l3.1211 11.223zm-6.0977 14.742 0.039062 0.078125c0.66016 1.4453 1.7227 2.6719 3.0312 3.5234 1.2578 0.81641 2.7578 1.293 4.3672 1.293 2.25 0 4.293-0.93359 5.7656-2.4375 1.4805-1.5117 2.3945-3.6055 2.3945-5.9258 0-2.3164-0.91797-4.4141-2.3945-5.9258-1.4766-1.5039-3.5156-2.4375-5.7656-2.4375-0.38672 0-0.75391 0.023437-1.0859 0.070313-0.35547 0.046874-0.70703 0.12109-1.0391 0.21094l-5.3164 11.547zm-12.859-41.355-4.3086-0.035157c-0.058594 0-0.11719-0.003906-0.17578-0.011719-0.19531 0.011719-0.39453 0.015626-0.59766 0.015626-1.9258 0-4.8203-0.56641-7.7109-1.3633-0.41016-0.11328-0.82031-0.23047-1.2305-0.35156-0.52734 1.832-0.89844 3.3008-0.97266 4.6992-0.074219 1.4219 0.15625 2.8672 0.84375 4.7188 2.5312 0.097657 4.8281 0.25781 6.6289 0.49219 1.3906 0.18359 2.625 0.58984 3.707 1.2617 1.0938 0.67578 2.0195 1.6016 2.7891 2.8008 2.2305 3.4727 2.5664 9.918 2.7617 14.242 1.6445 0.03125 3.4609 0.31641 4.6992 1.6641l0.59375-1.5312-7.0312-26.602zm0.58203-5.6914c0.28516 0.58203 0.39844 1.1875 0.34766 1.7773-0.027343 0.32031-0.10156 0.63281-0.21875 0.92969l8.8594 0.074219h0.11719l0.85156 0.007813-1.1562-6.4844-8.8008 3.6914zm-17.449 3.0195c-1.6445-0.58203-3.1172-1.1914-4.1953-1.75-0.73438-0.38281-1.0195-1.2891-0.64062-2.0195 0.38281-0.73438 1.2891-1.0195 2.0195-0.64062 1.7656 0.91797 4.7305 1.9922 7.6836 2.8086 1.0391 0.28516 2.0742 0.53906 3.0469 0.74219l0.26953-3.3477c-2.0742-0.5-3.9297-1.1016-5.6445-1.9883-2.2812-1.1836-4.2617-2.8477-6.0625-5.3984-0.41406 0.11328-0.83594 0.19531-1.2734 0.25-0.60938 0.078126-1.2344 0.097657-1.8672 0.058594-0.082032 0.015625-0.17188 0.023438-0.25781 0.023438-1.4375 0-2.8203-0.23828-4.1172-0.67969-2.9766 3.5547-4.6016 7.5781-5.4883 11.824-0.72266 3.457-0.96094 7.0781-1.0352 10.723l1.2266-0.074219c3.9531-0.22266 9.3633-0.35547 14.484-0.29687l1.375 0.019531c-0.54297-1.7617-0.72266-3.2656-0.64062-4.7812 0.09375-1.7344 0.51953-3.3984 1.1172-5.4727zm-17.328 13.59-0.26172 0.019532v0.070312c0 0.64062 0 1.6094 0.03125 2.5859 0.03125 0.91016 0.089844 1.8086 0.20313 2.3594 0.011718 0.058594 0.35547 0.050782 2.6094 0.027344 4.6914-0.046875 9.3828-0.070312 14.074-0.097656 2.2812-0.011719 4.2656 0.13672 5.8398 0.83594l0.09375 0.039062c1.8281 0.85156 2.9961 2.3398 3.2695 4.9258 0.11719 1.0938 0.15234 2.4961 0.1875 3.9531l0.027344 1.043 6.8672-0.16406c-0.17969-4-0.49219-9.8828-2.2891-12.676-0.52734-0.82031-1.1406-1.4414-1.8398-1.875-0.71484-0.4375-1.5508-0.71484-2.5234-0.83984-2.7266-0.35547-6.668-0.53125-10.828-0.57813-5.0117-0.058593-10.355 0.070313-14.293 0.29688l-1.1641 0.074218zm45.383-1.0586c-0.21875-0.79297 0.24609-1.6211 1.043-1.8398 0.79297-0.21875 1.6211 0.24609 1.8398 1.043l0.0625 0.22656c0.21875 0.79297-0.24609 1.6211-1.043 1.8398-0.79297 0.21875-1.6211-0.24609-1.8398-1.043zm-11.723 19.633-7.4336 0.17578c0.070312 0.76953 0.16406 1.4609 0.30859 2.0117 0.17969 0.69531 0.47656 1.0703 0.85547 1.2656 0.51953 0.26172 1.2969 0.33984 2.2148 0.375 0.84375 0.035156 1.9219 0.023438 3.0078-0.011719 1.3906-0.042969 2.8789-0.13281 3.9219-0.21484 0.95703-0.074219 1.8281-0.21875 2.2656-0.55469 0.24609-0.19141 0.33203-0.60938 0.11719-1.4062-0.5-1.7852-2.8594-1.7109-4.4297-1.6602l-0.82422 0.019531zm-1.6523-33.996c-0.4375-0.64844-1.5586-1.2891-3.5391-1.7344l-0.25391 3.168c0.32031 0.027344 0.62109 0.042969 0.89844 0.042969 1.4141 0 2.4062-0.34766 2.8633-0.83984 0.097656-0.10547 0.15234-0.20703 0.16016-0.28906 0.007812-0.089844-0.03125-0.20703-0.125-0.34375zm-13.34-22.098h-6.7617v9.6484l0.25-0.023437c1.8164-0.22656 3.3203-1.207 4.418-2.6016l0.058594-0.078124c1.1562-1.5039 1.8633-3.4688 2.0156-5.5273 0.035156-0.47266 0.042969-0.94531 0.019531-1.4141z"/>
</svg>