<svg xmlns="http://www.w3.org/2000/svg" data-name="Layer 1" viewBox="0 0 100 125" x="0px" y="0px">
  <path d="M96.5,6.075H59.113a1.5,1.5,0,0,0-1.5,1.5V28.811H45.82A12.641,12.641,0,0,0,36.6,32.62L14.533,54.665l-.716-.882a1.5,1.5,0,0,0-2.109-.218L2.555,60.986A1.5,1.5,0,0,0,2.336,63.1L26.951,93.372a1.5,1.5,0,0,0,2.109.218l9.153-7.427a1.5,1.5,0,0,0,.218-2.111l-1.042-1.281,5.231-5.342,2.776-.253A12.55,12.55,0,0,0,53.253,73.6l4.36-4.19V81.8a1.5,1.5,0,0,0,1.5,1.5H96.5A1.5,1.5,0,0,0,98,81.8V7.575A1.5,1.5,0,0,0,96.5,6.075ZM28.333,90.316,5.611,62.37l6.823-5.532.807.993.025.031L34.221,83.629l.01.014.925,1.137ZM51.175,71.431a9.538,9.538,0,0,1-6.049,2.758l-3.328.3a1.5,1.5,0,0,0-.936.445l-5.378,5.493L16.436,57.005,38.719,34.744a9.613,9.613,0,0,1,7.1-2.933H57.613v4.628H42.381a1.5,1.5,0,0,0,0,3H76.69a4.032,4.032,0,1,1,0,8.063H61.149a1.5,1.5,0,0,0-1.39.936,13.032,13.032,0,0,1-1.774,3.086,1.425,1.425,0,0,0-.108.138c-5.127,6.458-15.722,7.519-22.114,7.519a1.5,1.5,0,1,0,0,3c9.56,0,17.029-2.1,21.85-6.034v9.1ZM76.69,36.439H68.242A12.615,12.615,0,1,1,66.585,50.5H76.69a7.032,7.032,0,1,0,0-14.063ZM95,80.3H60.613V53.009A15.939,15.939,0,0,0,62.124,50.5h1.168a15.624,15.624,0,1,0,1.235-14.063H60.613V9.075H95ZM93.445,58.531v14.98a1.5,1.5,0,0,1-1.5,1.5,2.24,2.24,0,0,0-2.237,2.237,1.5,1.5,0,0,1-1.5,1.5h-20.8a1.5,1.5,0,0,1-1.5-1.5,2.24,2.24,0,0,0-2.237-2.237,1.5,1.5,0,0,1-1.5-1.5V58.531a1.5,1.5,0,0,1,3,0v13.7a5.259,5.259,0,0,1,3.518,3.518H86.927a5.259,5.259,0,0,1,3.518-3.518v-13.7a1.5,1.5,0,0,1,3,0ZM62.168,30.847V15.861a1.5,1.5,0,0,1,1.5-1.5,2.237,2.237,0,0,0,2.237-2.232,1.5,1.5,0,0,1,1.5-1.5h20.8a1.5,1.5,0,0,1,1.5,1.5,2.237,2.237,0,0,0,2.237,2.232,1.5,1.5,0,0,1,1.5,1.5V30.847a1.5,1.5,0,1,1-3,0v-13.7a5.258,5.258,0,0,1-3.517-3.514H68.685a5.258,5.258,0,0,1-3.517,3.514v13.7a1.5,1.5,0,0,1-3,0Z" fill="#E66195"/>
</svg>
